<svg id="Layer_1" data-name="Layer 1" xmlns="http://www.w3.org/2000/svg" viewBox="0 0 426.49 445.17"><defs><style>.cls-1{fill:#147aff;fill-opacity:0.88;}.cls-1,.cls-2{fill-rule:evenodd;}.cls-2{fill:#7debff;isolation:isolate;opacity:0.85;}</style></defs><path class="cls-1" d="M80.1,214.8,373.7,29a14.61,14.61,0,0,1,20.2,4.3l61.9,98.3a14.56,14.56,0,0,1-4.8,20.1L157.4,337.6a14.61,14.61,0,0,1-20.2-4.3L75.3,235A14.78,14.78,0,0,1,80.1,214.8Z" transform="translate(-31.51 -26.66)"/><path class="cls-2" d="M40.6,342.5,338.1,154.3a18.93,18.93,0,0,1,26.2,5.6l59.5,94.5a19.08,19.08,0,0,1-6.2,26.2L120.1,468.8a18.93,18.93,0,0,1-26.2-5.6L34.4,368.7A19,19,0,0,1,40.6,342.5Z" transform="translate(-31.51 -26.66)"/></svg>